G04 #@! TF.FileFunction,Legend,Top*
%FSLAX46Y46*%
G04 Gerber Fmt 4.6, Leading zero omitted, Abs format (unit mm)*
G04 Created by KiCad (PCBNEW 4.0.2+e4-6225~38~ubuntu16.04.1-stable) date fre  5 aug 2016 15:05:03*
%MOMM*%
G01*
G04 APERTURE LIST*
%ADD10C,0.100000*%
%ADD11C,0.150000*%
G04 APERTURE END LIST*
D10*
D11*
X117467000Y-128533000D02*
X117467000Y-127263000D01*
X110117000Y-128533000D02*
X110117000Y-127263000D01*
X110117000Y-116323000D02*
X110117000Y-117593000D01*
X117467000Y-116323000D02*
X117467000Y-117593000D01*
X117467000Y-128533000D02*
X110117000Y-128533000D01*
X117467000Y-116323000D02*
X110117000Y-116323000D01*
X117467000Y-127263000D02*
X118402000Y-127263000D01*
X121754000Y-108450000D02*
X121754000Y-107450000D01*
X120054000Y-107450000D02*
X120054000Y-108450000D01*
X116340000Y-115150000D02*
X117340000Y-115150000D01*
X117340000Y-113450000D02*
X116340000Y-113450000D01*
X105830000Y-119134000D02*
X105830000Y-120134000D01*
X107530000Y-120134000D02*
X107530000Y-119134000D01*
X106926000Y-105322000D02*
X105926000Y-105322000D01*
X105926000Y-107022000D02*
X106926000Y-107022000D01*
X111768000Y-104482000D02*
X112768000Y-104482000D01*
X112768000Y-102782000D02*
X111768000Y-102782000D01*
X122033000Y-118018000D02*
X122033000Y-119218000D01*
X120283000Y-119218000D02*
X120283000Y-118018000D01*
X122033000Y-123860000D02*
X122033000Y-125060000D01*
X120283000Y-125060000D02*
X120283000Y-123860000D01*
X113651000Y-115224000D02*
X113651000Y-116424000D01*
X111901000Y-116424000D02*
X111901000Y-115224000D01*
X113651000Y-120812000D02*
X113651000Y-122012000D01*
X111901000Y-122012000D02*
X111901000Y-120812000D01*
X106080000Y-112155000D02*
X107280000Y-112155000D01*
X107280000Y-113905000D02*
X106080000Y-113905000D01*
X106080000Y-109615000D02*
X107280000Y-109615000D01*
X107280000Y-111365000D02*
X106080000Y-111365000D01*
X111937700Y-111110500D02*
X115646300Y-111110500D01*
X110262700Y-105805500D02*
X115646300Y-105805500D01*
X114323905Y-127960381D02*
X114323905Y-126960381D01*
X114704858Y-126960381D01*
X114800096Y-127008000D01*
X114847715Y-127055619D01*
X114895334Y-127150857D01*
X114895334Y-127293714D01*
X114847715Y-127388952D01*
X114800096Y-127436571D01*
X114704858Y-127484190D01*
X114323905Y-127484190D01*
X115847715Y-127960381D02*
X115276286Y-127960381D01*
X115562000Y-127960381D02*
X115562000Y-126960381D01*
X115466762Y-127103238D01*
X115371524Y-127198476D01*
X115276286Y-127246095D01*
X123361143Y-108116666D02*
X123408762Y-108164285D01*
X123456381Y-108307142D01*
X123456381Y-108402380D01*
X123408762Y-108545238D01*
X123313524Y-108640476D01*
X123218286Y-108688095D01*
X123027810Y-108735714D01*
X122884952Y-108735714D01*
X122694476Y-108688095D01*
X122599238Y-108640476D01*
X122504000Y-108545238D01*
X122456381Y-108402380D01*
X122456381Y-108307142D01*
X122504000Y-108164285D01*
X122551619Y-108116666D01*
X123456381Y-107164285D02*
X123456381Y-107735714D01*
X123456381Y-107450000D02*
X122456381Y-107450000D01*
X122599238Y-107545238D01*
X122694476Y-107640476D01*
X122742095Y-107735714D01*
X117943334Y-112879143D02*
X117895715Y-112926762D01*
X117752858Y-112974381D01*
X117657620Y-112974381D01*
X117514762Y-112926762D01*
X117419524Y-112831524D01*
X117371905Y-112736286D01*
X117324286Y-112545810D01*
X117324286Y-112402952D01*
X117371905Y-112212476D01*
X117419524Y-112117238D01*
X117514762Y-112022000D01*
X117657620Y-111974381D01*
X117752858Y-111974381D01*
X117895715Y-112022000D01*
X117943334Y-112069619D01*
X118324286Y-112069619D02*
X118371905Y-112022000D01*
X118467143Y-111974381D01*
X118705239Y-111974381D01*
X118800477Y-112022000D01*
X118848096Y-112069619D01*
X118895715Y-112164857D01*
X118895715Y-112260095D01*
X118848096Y-112402952D01*
X118276667Y-112974381D01*
X118895715Y-112974381D01*
X104751143Y-120816666D02*
X104798762Y-120864285D01*
X104846381Y-121007142D01*
X104846381Y-121102380D01*
X104798762Y-121245238D01*
X104703524Y-121340476D01*
X104608286Y-121388095D01*
X104417810Y-121435714D01*
X104274952Y-121435714D01*
X104084476Y-121388095D01*
X103989238Y-121340476D01*
X103894000Y-121245238D01*
X103846381Y-121102380D01*
X103846381Y-121007142D01*
X103894000Y-120864285D01*
X103941619Y-120816666D01*
X103846381Y-120483333D02*
X103846381Y-119864285D01*
X104227333Y-120197619D01*
X104227333Y-120054761D01*
X104274952Y-119959523D01*
X104322571Y-119911904D01*
X104417810Y-119864285D01*
X104655905Y-119864285D01*
X104751143Y-119911904D01*
X104798762Y-119959523D01*
X104846381Y-120054761D01*
X104846381Y-120340476D01*
X104798762Y-120435714D01*
X104751143Y-120483333D01*
X102703334Y-105767143D02*
X102655715Y-105814762D01*
X102512858Y-105862381D01*
X102417620Y-105862381D01*
X102274762Y-105814762D01*
X102179524Y-105719524D01*
X102131905Y-105624286D01*
X102084286Y-105433810D01*
X102084286Y-105290952D01*
X102131905Y-105100476D01*
X102179524Y-105005238D01*
X102274762Y-104910000D01*
X102417620Y-104862381D01*
X102512858Y-104862381D01*
X102655715Y-104910000D01*
X102703334Y-104957619D01*
X103560477Y-105195714D02*
X103560477Y-105862381D01*
X103322381Y-104814762D02*
X103084286Y-105529048D01*
X103703334Y-105529048D01*
X115657334Y-103481143D02*
X115609715Y-103528762D01*
X115466858Y-103576381D01*
X115371620Y-103576381D01*
X115228762Y-103528762D01*
X115133524Y-103433524D01*
X115085905Y-103338286D01*
X115038286Y-103147810D01*
X115038286Y-103004952D01*
X115085905Y-102814476D01*
X115133524Y-102719238D01*
X115228762Y-102624000D01*
X115371620Y-102576381D01*
X115466858Y-102576381D01*
X115609715Y-102624000D01*
X115657334Y-102671619D01*
X116562096Y-102576381D02*
X116085905Y-102576381D01*
X116038286Y-103052571D01*
X116085905Y-103004952D01*
X116181143Y-102957333D01*
X116419239Y-102957333D01*
X116514477Y-103004952D01*
X116562096Y-103052571D01*
X116609715Y-103147810D01*
X116609715Y-103385905D01*
X116562096Y-103481143D01*
X116514477Y-103528762D01*
X116419239Y-103576381D01*
X116181143Y-103576381D01*
X116085905Y-103528762D01*
X116038286Y-103481143D01*
X122118381Y-115482666D02*
X121642190Y-115816000D01*
X122118381Y-116054095D02*
X121118381Y-116054095D01*
X121118381Y-115673142D01*
X121166000Y-115577904D01*
X121213619Y-115530285D01*
X121308857Y-115482666D01*
X121451714Y-115482666D01*
X121546952Y-115530285D01*
X121594571Y-115577904D01*
X121642190Y-115673142D01*
X121642190Y-116054095D01*
X122118381Y-114530285D02*
X122118381Y-115101714D01*
X122118381Y-114816000D02*
X121118381Y-114816000D01*
X121261238Y-114911238D01*
X121356476Y-115006476D01*
X121404095Y-115101714D01*
X121864381Y-127928666D02*
X121388190Y-128262000D01*
X121864381Y-128500095D02*
X120864381Y-128500095D01*
X120864381Y-128119142D01*
X120912000Y-128023904D01*
X120959619Y-127976285D01*
X121054857Y-127928666D01*
X121197714Y-127928666D01*
X121292952Y-127976285D01*
X121340571Y-128023904D01*
X121388190Y-128119142D01*
X121388190Y-128500095D01*
X120959619Y-127547714D02*
X120912000Y-127500095D01*
X120864381Y-127404857D01*
X120864381Y-127166761D01*
X120912000Y-127071523D01*
X120959619Y-127023904D01*
X121054857Y-126976285D01*
X121150095Y-126976285D01*
X121292952Y-127023904D01*
X121864381Y-127595333D01*
X121864381Y-126976285D01*
X115260381Y-117768666D02*
X114784190Y-118102000D01*
X115260381Y-118340095D02*
X114260381Y-118340095D01*
X114260381Y-117959142D01*
X114308000Y-117863904D01*
X114355619Y-117816285D01*
X114450857Y-117768666D01*
X114593714Y-117768666D01*
X114688952Y-117816285D01*
X114736571Y-117863904D01*
X114784190Y-117959142D01*
X114784190Y-118340095D01*
X114260381Y-117435333D02*
X114260381Y-116816285D01*
X114641333Y-117149619D01*
X114641333Y-117006761D01*
X114688952Y-116911523D01*
X114736571Y-116863904D01*
X114831810Y-116816285D01*
X115069905Y-116816285D01*
X115165143Y-116863904D01*
X115212762Y-116911523D01*
X115260381Y-117006761D01*
X115260381Y-117292476D01*
X115212762Y-117387714D01*
X115165143Y-117435333D01*
X112974381Y-125134666D02*
X112498190Y-125468000D01*
X112974381Y-125706095D02*
X111974381Y-125706095D01*
X111974381Y-125325142D01*
X112022000Y-125229904D01*
X112069619Y-125182285D01*
X112164857Y-125134666D01*
X112307714Y-125134666D01*
X112402952Y-125182285D01*
X112450571Y-125229904D01*
X112498190Y-125325142D01*
X112498190Y-125706095D01*
X112307714Y-124277523D02*
X112974381Y-124277523D01*
X111926762Y-124515619D02*
X112641048Y-124753714D01*
X112641048Y-124134666D01*
X102957334Y-113736381D02*
X102624000Y-113260190D01*
X102385905Y-113736381D02*
X102385905Y-112736381D01*
X102766858Y-112736381D01*
X102862096Y-112784000D01*
X102909715Y-112831619D01*
X102957334Y-112926857D01*
X102957334Y-113069714D01*
X102909715Y-113164952D01*
X102862096Y-113212571D01*
X102766858Y-113260190D01*
X102385905Y-113260190D01*
X103862096Y-112736381D02*
X103385905Y-112736381D01*
X103338286Y-113212571D01*
X103385905Y-113164952D01*
X103481143Y-113117333D01*
X103719239Y-113117333D01*
X103814477Y-113164952D01*
X103862096Y-113212571D01*
X103909715Y-113307810D01*
X103909715Y-113545905D01*
X103862096Y-113641143D01*
X103814477Y-113688762D01*
X103719239Y-113736381D01*
X103481143Y-113736381D01*
X103385905Y-113688762D01*
X103338286Y-113641143D01*
X102703334Y-110688381D02*
X102370000Y-110212190D01*
X102131905Y-110688381D02*
X102131905Y-109688381D01*
X102512858Y-109688381D01*
X102608096Y-109736000D01*
X102655715Y-109783619D01*
X102703334Y-109878857D01*
X102703334Y-110021714D01*
X102655715Y-110116952D01*
X102608096Y-110164571D01*
X102512858Y-110212190D01*
X102131905Y-110212190D01*
X103560477Y-109688381D02*
X103370000Y-109688381D01*
X103274762Y-109736000D01*
X103227143Y-109783619D01*
X103131905Y-109926476D01*
X103084286Y-110116952D01*
X103084286Y-110497905D01*
X103131905Y-110593143D01*
X103179524Y-110640762D01*
X103274762Y-110688381D01*
X103465239Y-110688381D01*
X103560477Y-110640762D01*
X103608096Y-110593143D01*
X103655715Y-110497905D01*
X103655715Y-110259810D01*
X103608096Y-110164571D01*
X103560477Y-110116952D01*
X103465239Y-110069333D01*
X103274762Y-110069333D01*
X103179524Y-110116952D01*
X103131905Y-110164571D01*
X103084286Y-110259810D01*
X115824095Y-104354381D02*
X115824095Y-105163905D01*
X115871714Y-105259143D01*
X115919333Y-105306762D01*
X116014571Y-105354381D01*
X116205048Y-105354381D01*
X116300286Y-105306762D01*
X116347905Y-105259143D01*
X116395524Y-105163905D01*
X116395524Y-104354381D01*
X117395524Y-105354381D02*
X116824095Y-105354381D01*
X117109809Y-105354381D02*
X117109809Y-104354381D01*
X117014571Y-104497238D01*
X116919333Y-104592476D01*
X116824095Y-104640095D01*
M02*
