G04 #@! TF.FileFunction,Copper,L1,Top,Signal*
%FSLAX46Y46*%
G04 Gerber Fmt 4.6, Leading zero omitted, Abs format (unit mm)*
G04 Created by KiCad (PCBNEW 4.0.2+e4-6225~38~ubuntu16.04.1-stable) date fre  5 aug 2016 15:05:03*
%MOMM*%
G01*
G04 APERTURE LIST*
%ADD10C,0.100000*%
%ADD11O,1.600000X1.600000*%
%ADD12R,1.250000X1.500000*%
%ADD13R,1.500000X1.250000*%
%ADD14R,1.300000X1.500000*%
%ADD15R,1.500000X1.300000*%
%ADD16R,1.600000X0.410000*%
%ADD17C,1.300000*%
%ADD18C,0.400000*%
G04 APERTURE END LIST*
D10*
D11*
X117602000Y-126238000D03*
X117602000Y-123698000D03*
X117602000Y-121158000D03*
X117602000Y-118618000D03*
X109982000Y-118618000D03*
X109982000Y-121158000D03*
X109982000Y-123698000D03*
X109982000Y-126238000D03*
D12*
X120904000Y-106700000D03*
X120904000Y-109200000D03*
D13*
X118090000Y-114300000D03*
X115590000Y-114300000D03*
D12*
X106680000Y-120884000D03*
X106680000Y-118384000D03*
D13*
X105176000Y-106172000D03*
X107676000Y-106172000D03*
X113518000Y-103632000D03*
X111018000Y-103632000D03*
D14*
X121158000Y-119968000D03*
X121158000Y-117268000D03*
X121158000Y-125810000D03*
X121158000Y-123110000D03*
X112776000Y-117174000D03*
X112776000Y-114474000D03*
X112776000Y-122762000D03*
X112776000Y-120062000D03*
D15*
X108030000Y-113030000D03*
X105330000Y-113030000D03*
X108030000Y-110490000D03*
X105330000Y-110490000D03*
D16*
X111137700Y-106235500D03*
X111137700Y-106870500D03*
X111137700Y-107505500D03*
X111137700Y-108140500D03*
X111137700Y-108775500D03*
X111137700Y-109410500D03*
X111137700Y-110045500D03*
X111137700Y-110680500D03*
X116446300Y-110680500D03*
X116446300Y-110045500D03*
X116446300Y-109410500D03*
X116446300Y-108775500D03*
X116446300Y-108140500D03*
X116446300Y-107505500D03*
X116446300Y-106870500D03*
X116446300Y-106235500D03*
D17*
X106426000Y-122936000D03*
X102362000Y-122682000D03*
D18*
X119126000Y-108478000D02*
X119126000Y-107696000D01*
X119126000Y-107696000D02*
X119951500Y-106870500D01*
X121158000Y-123110000D02*
X121158000Y-122936000D01*
X121158000Y-122936000D02*
X122682000Y-121412000D01*
X122682000Y-121412000D02*
X122682000Y-119126000D01*
X122682000Y-119126000D02*
X122174000Y-118618000D01*
X122174000Y-118618000D02*
X120142000Y-118618000D01*
X120142000Y-118618000D02*
X119634000Y-118110000D01*
X119634000Y-118110000D02*
X119634000Y-115570000D01*
X119634000Y-115570000D02*
X119888000Y-115316000D01*
X119888000Y-115316000D02*
X119888000Y-111252000D01*
X119888000Y-111252000D02*
X119126000Y-110490000D01*
X119126000Y-110490000D02*
X119126000Y-108478000D01*
X116446300Y-106870500D02*
X119951500Y-106870500D01*
X119951500Y-106870500D02*
X120733500Y-106870500D01*
X120733500Y-106870500D02*
X120904000Y-106700000D01*
X120904000Y-109200000D02*
X120904000Y-117014000D01*
X120904000Y-117014000D02*
X121158000Y-117268000D01*
X116446300Y-106235500D02*
X118300500Y-106235500D01*
X121686000Y-109200000D02*
X120904000Y-109200000D01*
X122682000Y-108204000D02*
X121686000Y-109200000D01*
X122682000Y-105664000D02*
X122682000Y-108204000D01*
X121920000Y-104902000D02*
X122682000Y-105664000D01*
X119634000Y-104902000D02*
X121920000Y-104902000D01*
X118300500Y-106235500D02*
X119634000Y-104902000D01*
X112776000Y-120062000D02*
X113110000Y-120062000D01*
X113110000Y-120062000D02*
X116840000Y-116332000D01*
X116840000Y-115550000D02*
X118364000Y-114026000D01*
X116840000Y-116332000D02*
X116840000Y-115550000D01*
X118364000Y-114026000D02*
X118364000Y-110744000D01*
X118364000Y-110744000D02*
X117665500Y-110045500D01*
X117665500Y-110045500D02*
X116446300Y-110045500D01*
X112776000Y-120062000D02*
X112856000Y-120062000D01*
X115590000Y-114300000D02*
X112950000Y-114300000D01*
X112950000Y-114300000D02*
X112776000Y-114474000D01*
X112776000Y-114474000D02*
X112776000Y-114350800D01*
X112776000Y-114350800D02*
X116446300Y-110680500D01*
X102362000Y-122682000D02*
X102362000Y-122936000D01*
X113518000Y-103632000D02*
X113518000Y-104882000D01*
X113518000Y-104882000D02*
X113538000Y-104902000D01*
X105176000Y-106172000D02*
X105176000Y-106152000D01*
X105176000Y-106152000D02*
X105918000Y-105410000D01*
X105918000Y-105410000D02*
X105918000Y-105430000D01*
X108030000Y-113030000D02*
X108030000Y-114220000D01*
X113538000Y-103652000D02*
X113538000Y-104902000D01*
X113538000Y-104902000D02*
X113538000Y-105664000D01*
X115379500Y-107505500D02*
X116446300Y-107505500D01*
X113538000Y-105664000D02*
X115379500Y-107505500D01*
X113538000Y-103652000D02*
X113518000Y-103632000D01*
X102362000Y-108966000D02*
X102382000Y-108966000D01*
X102362000Y-122682000D02*
X102362000Y-108966000D01*
X102382000Y-108966000D02*
X105918000Y-105430000D01*
X105918000Y-105430000D02*
X107696000Y-103652000D01*
X113518000Y-103632000D02*
X113518000Y-103358000D01*
X113518000Y-103358000D02*
X112268000Y-102108000D01*
X109240000Y-102108000D02*
X107696000Y-103652000D01*
X112268000Y-102108000D02*
X109240000Y-102108000D01*
X106680000Y-120884000D02*
X106680000Y-122682000D01*
X106680000Y-122682000D02*
X106426000Y-122936000D01*
X108458000Y-124968000D02*
X106426000Y-122936000D01*
X106680000Y-120884000D02*
X106152000Y-120884000D01*
X106152000Y-120884000D02*
X105156000Y-119888000D01*
X108030000Y-114220000D02*
X108030000Y-110490000D01*
X105156000Y-117094000D02*
X108030000Y-114220000D01*
X105156000Y-119888000D02*
X105156000Y-117094000D01*
X106680000Y-120884000D02*
X106680000Y-121412000D01*
X108458000Y-124968000D02*
X109728000Y-126238000D01*
X109728000Y-126238000D02*
X109982000Y-126238000D01*
X111137700Y-106235500D02*
X107779500Y-106235500D01*
X107779500Y-106235500D02*
X107696000Y-106152000D01*
X111137700Y-106235500D02*
X111137700Y-103751700D01*
X111137700Y-103751700D02*
X111018000Y-103632000D01*
X108204000Y-119380000D02*
X108204000Y-119380000D01*
X107208000Y-118384000D02*
X106680000Y-118384000D01*
X108204000Y-119380000D02*
X107208000Y-118384000D01*
X111137700Y-106235500D02*
X112331500Y-106235500D01*
X112776000Y-106680000D02*
X112776000Y-107950000D01*
X112331500Y-106235500D02*
X112776000Y-106680000D01*
X111137700Y-107505500D02*
X112331500Y-107505500D01*
X112776000Y-107950000D02*
X112776000Y-109410500D01*
X112331500Y-107505500D02*
X112776000Y-107950000D01*
X116446300Y-108140500D02*
X114871500Y-108140500D01*
X114554000Y-108458000D02*
X114554000Y-109410500D01*
X114871500Y-108140500D02*
X114554000Y-108458000D01*
X116446300Y-109410500D02*
X114554000Y-109410500D01*
X114554000Y-109410500D02*
X112776000Y-109410500D01*
X112776000Y-109410500D02*
X112458500Y-109410500D01*
X111137700Y-110680500D02*
X112585500Y-110680500D01*
X112458500Y-109410500D02*
X111137700Y-109410500D01*
X112776000Y-109728000D02*
X112458500Y-109410500D01*
X112776000Y-110490000D02*
X112776000Y-109728000D01*
X112585500Y-110680500D02*
X112776000Y-110490000D01*
X109982000Y-121158000D02*
X108204000Y-119380000D01*
X110998000Y-113030000D02*
X110998000Y-110820200D01*
X108204000Y-115824000D02*
X110998000Y-113030000D01*
X108204000Y-119380000D02*
X108204000Y-115824000D01*
X110998000Y-110820200D02*
X111137700Y-110680500D01*
X117602000Y-126238000D02*
X120730000Y-126238000D01*
X120730000Y-126238000D02*
X121158000Y-125810000D01*
X105330000Y-110490000D02*
X104648000Y-110490000D01*
X104648000Y-110490000D02*
X103632000Y-111506000D01*
X116332000Y-123698000D02*
X117602000Y-123698000D01*
X111506000Y-128524000D02*
X116332000Y-123698000D01*
X108458000Y-128524000D02*
X111506000Y-128524000D01*
X103632000Y-123698000D02*
X108458000Y-128524000D01*
X103632000Y-111506000D02*
X103632000Y-123698000D01*
X111137700Y-108140500D02*
X106489500Y-108140500D01*
X105330000Y-109300000D02*
X105330000Y-110490000D01*
X106489500Y-108140500D02*
X105330000Y-109300000D01*
X117602000Y-123698000D02*
X117094000Y-123698000D01*
X117602000Y-123698000D02*
X117174000Y-123698000D01*
X117602000Y-123698000D02*
X117348000Y-123698000D01*
X117602000Y-121158000D02*
X119968000Y-121158000D01*
X119968000Y-121158000D02*
X121158000Y-119968000D01*
X105330000Y-113030000D02*
X105330000Y-114888000D01*
X114808000Y-121412000D02*
X117602000Y-118618000D01*
X114808000Y-123698000D02*
X114808000Y-121412000D01*
X110744000Y-127762000D02*
X114808000Y-123698000D01*
X108966000Y-127762000D02*
X110744000Y-127762000D01*
X104394000Y-123190000D02*
X108966000Y-127762000D01*
X104394000Y-115824000D02*
X104394000Y-123190000D01*
X105330000Y-114888000D02*
X104394000Y-115824000D01*
X111137700Y-108775500D02*
X107378500Y-108775500D01*
X106680000Y-111680000D02*
X105330000Y-113030000D01*
X106680000Y-109474000D02*
X106680000Y-111680000D01*
X107378500Y-108775500D02*
X106680000Y-109474000D01*
X117602000Y-118618000D02*
X117348000Y-118618000D01*
X109982000Y-118618000D02*
X111252000Y-117348000D01*
X111252000Y-117348000D02*
X112602000Y-117348000D01*
X112602000Y-117348000D02*
X112776000Y-117174000D01*
X109982000Y-123698000D02*
X111840000Y-123698000D01*
X111840000Y-123698000D02*
X112776000Y-122762000D01*
M02*
