G04 #@! TF.FileFunction,Soldermask,Top*
%FSLAX46Y46*%
G04 Gerber Fmt 4.6, Leading zero omitted, Abs format (unit mm)*
G04 Created by KiCad (PCBNEW 4.0.2+e4-6225~38~ubuntu16.04.1-stable) date fre  5 aug 2016 15:05:03*
%MOMM*%
G01*
G04 APERTURE LIST*
%ADD10C,0.100000*%
%ADD11O,2.000000X2.000000*%
%ADD12R,1.650000X1.900000*%
%ADD13R,1.900000X1.650000*%
%ADD14R,1.700000X1.900000*%
%ADD15R,1.900000X1.700000*%
%ADD16R,2.000000X0.810000*%
G04 APERTURE END LIST*
D10*
D11*
X117602000Y-126238000D03*
X117602000Y-123698000D03*
X117602000Y-121158000D03*
X117602000Y-118618000D03*
X109982000Y-118618000D03*
X109982000Y-121158000D03*
X109982000Y-123698000D03*
X109982000Y-126238000D03*
D12*
X120904000Y-106700000D03*
X120904000Y-109200000D03*
D13*
X118090000Y-114300000D03*
X115590000Y-114300000D03*
D12*
X106680000Y-120884000D03*
X106680000Y-118384000D03*
D13*
X105176000Y-106172000D03*
X107676000Y-106172000D03*
X113518000Y-103632000D03*
X111018000Y-103632000D03*
D14*
X121158000Y-119968000D03*
X121158000Y-117268000D03*
X121158000Y-125810000D03*
X121158000Y-123110000D03*
X112776000Y-117174000D03*
X112776000Y-114474000D03*
X112776000Y-122762000D03*
X112776000Y-120062000D03*
D15*
X108030000Y-113030000D03*
X105330000Y-113030000D03*
X108030000Y-110490000D03*
X105330000Y-110490000D03*
D16*
X111137700Y-106235500D03*
X111137700Y-106870500D03*
X111137700Y-107505500D03*
X111137700Y-108140500D03*
X111137700Y-108775500D03*
X111137700Y-109410500D03*
X111137700Y-110045500D03*
X111137700Y-110680500D03*
X116446300Y-110680500D03*
X116446300Y-110045500D03*
X116446300Y-109410500D03*
X116446300Y-108775500D03*
X116446300Y-108140500D03*
X116446300Y-107505500D03*
X116446300Y-106870500D03*
X116446300Y-106235500D03*
M02*
